<mxfile host="app.diagrams.net" agent="Mozilla/5.0 (Windows NT 10.0; Win64; x64) AppleWebKit/537.36 (KHTML, like Gecko) Chrome/136.0.0.0 Safari/537.36 Edg/136.0.0.0" version="27.0.5">
  <diagram name="第 1 页" id="FV0s8UuP8bR5lZFFDjyr">
    <mxGraphModel dx="1477" dy="771" grid="1" gridSize="10" guides="1" tooltips="1" connect="1" arrows="1" fold="1" page="1" pageScale="1" pageWidth="827" pageHeight="1169" math="0" shadow="0">
      <root>
        <mxCell id="0" />
        <mxCell id="1" parent="0" />
        <mxCell id="tP8016Ay0PhHoCR8HvtD-37" value="" style="rounded=0;whiteSpace=wrap;html=1;fillColor=#fff2cc;strokeColor=#d6b656;" parent="1" vertex="1">
          <mxGeometry x="240" y="410" width="940" height="197" as="geometry" />
        </mxCell>
        <mxCell id="tP8016Ay0PhHoCR8HvtD-34" value="" style="rounded=0;whiteSpace=wrap;html=1;fillColor=#dae8fc;strokeColor=#6c8ebf;" parent="1" vertex="1">
          <mxGeometry x="240" y="113" width="940" height="197" as="geometry" />
        </mxCell>
        <mxCell id="tP8016Ay0PhHoCR8HvtD-7" style="edgeStyle=orthogonalEdgeStyle;rounded=0;orthogonalLoop=1;jettySize=auto;html=1;" parent="1" source="tP8016Ay0PhHoCR8HvtD-1" target="tP8016Ay0PhHoCR8HvtD-3" edge="1">
          <mxGeometry relative="1" as="geometry" />
        </mxCell>
        <mxCell id="tP8016Ay0PhHoCR8HvtD-36" style="edgeStyle=orthogonalEdgeStyle;rounded=0;orthogonalLoop=1;jettySize=auto;html=1;entryX=0.5;entryY=1;entryDx=0;entryDy=0;" parent="1" source="tP8016Ay0PhHoCR8HvtD-1" target="tP8016Ay0PhHoCR8HvtD-2" edge="1">
          <mxGeometry relative="1" as="geometry" />
        </mxCell>
        <mxCell id="tP8016Ay0PhHoCR8HvtD-1" value="&lt;font style=&quot;font-size: 18px;&quot;&gt;原始图像&lt;/font&gt;" style="whiteSpace=wrap;html=1;aspect=fixed;" parent="1" vertex="1">
          <mxGeometry x="100" y="320" width="80" height="80" as="geometry" />
        </mxCell>
        <mxCell id="tP8016Ay0PhHoCR8HvtD-9" style="edgeStyle=orthogonalEdgeStyle;rounded=0;orthogonalLoop=1;jettySize=auto;html=1;entryX=0.5;entryY=1;entryDx=0;entryDy=0;" parent="1" source="tP8016Ay0PhHoCR8HvtD-2" target="tP8016Ay0PhHoCR8HvtD-4" edge="1">
          <mxGeometry relative="1" as="geometry" />
        </mxCell>
        <mxCell id="tP8016Ay0PhHoCR8HvtD-2" value="&lt;font style=&quot;font-size: 18px;&quot;&gt;增强图像&lt;/font&gt;" style="whiteSpace=wrap;html=1;aspect=fixed;" parent="1" vertex="1">
          <mxGeometry x="270" y="195" width="80" height="80" as="geometry" />
        </mxCell>
        <mxCell id="tP8016Ay0PhHoCR8HvtD-8" style="edgeStyle=orthogonalEdgeStyle;rounded=0;orthogonalLoop=1;jettySize=auto;html=1;" parent="1" source="tP8016Ay0PhHoCR8HvtD-3" target="tP8016Ay0PhHoCR8HvtD-5" edge="1">
          <mxGeometry relative="1" as="geometry" />
        </mxCell>
        <mxCell id="tP8016Ay0PhHoCR8HvtD-3" value="&lt;font style=&quot;font-size: 18px;&quot;&gt;增强图像&lt;/font&gt;" style="whiteSpace=wrap;html=1;aspect=fixed;" parent="1" vertex="1">
          <mxGeometry x="270" y="445" width="80" height="80" as="geometry" />
        </mxCell>
        <mxCell id="tP8016Ay0PhHoCR8HvtD-4" value="" style="shape=trapezoid;perimeter=trapezoidPerimeter;whiteSpace=wrap;html=1;fixedSize=1;rotation=90;" parent="1" vertex="1">
          <mxGeometry x="440" y="190" width="120" height="90" as="geometry" />
        </mxCell>
        <mxCell id="UuHTb96S9nf3vTYllVMT-1" style="edgeStyle=orthogonalEdgeStyle;rounded=0;orthogonalLoop=1;jettySize=auto;html=1;" edge="1" parent="1" source="tP8016Ay0PhHoCR8HvtD-5" target="tP8016Ay0PhHoCR8HvtD-4">
          <mxGeometry relative="1" as="geometry" />
        </mxCell>
        <mxCell id="UuHTb96S9nf3vTYllVMT-3" value="&lt;font style=&quot;font-size: 20px;&quot;&gt;EMA&lt;/font&gt;" style="edgeLabel;html=1;align=center;verticalAlign=middle;resizable=0;points=[];" vertex="1" connectable="0" parent="UuHTb96S9nf3vTYllVMT-1">
          <mxGeometry y="-1" relative="1" as="geometry">
            <mxPoint as="offset" />
          </mxGeometry>
        </mxCell>
        <mxCell id="tP8016Ay0PhHoCR8HvtD-5" value="" style="shape=trapezoid;perimeter=trapezoidPerimeter;whiteSpace=wrap;html=1;fixedSize=1;rotation=90;" parent="1" vertex="1">
          <mxGeometry x="440" y="440" width="120" height="90" as="geometry" />
        </mxCell>
        <mxCell id="tP8016Ay0PhHoCR8HvtD-17" style="edgeStyle=orthogonalEdgeStyle;rounded=0;orthogonalLoop=1;jettySize=auto;html=1;entryX=0.5;entryY=0;entryDx=0;entryDy=0;" parent="1" source="tP8016Ay0PhHoCR8HvtD-10" target="tP8016Ay0PhHoCR8HvtD-12" edge="1">
          <mxGeometry relative="1" as="geometry" />
        </mxCell>
        <mxCell id="tP8016Ay0PhHoCR8HvtD-23" style="edgeStyle=orthogonalEdgeStyle;rounded=0;orthogonalLoop=1;jettySize=auto;html=1;entryX=0.5;entryY=0;entryDx=0;entryDy=0;" parent="1" source="tP8016Ay0PhHoCR8HvtD-10" target="tP8016Ay0PhHoCR8HvtD-22" edge="1">
          <mxGeometry relative="1" as="geometry" />
        </mxCell>
        <mxCell id="tP8016Ay0PhHoCR8HvtD-10" value="&lt;font style=&quot;font-size: 18px;&quot;&gt;backbone&lt;/font&gt;" style="text;html=1;align=center;verticalAlign=middle;resizable=0;points=[];autosize=1;strokeColor=none;fillColor=none;" parent="1" vertex="1">
          <mxGeometry x="450" y="215" width="100" height="40" as="geometry" />
        </mxCell>
        <mxCell id="tP8016Ay0PhHoCR8HvtD-16" style="edgeStyle=orthogonalEdgeStyle;rounded=0;orthogonalLoop=1;jettySize=auto;html=1;entryX=0.5;entryY=0;entryDx=0;entryDy=0;" parent="1" source="tP8016Ay0PhHoCR8HvtD-11" target="tP8016Ay0PhHoCR8HvtD-14" edge="1">
          <mxGeometry relative="1" as="geometry" />
        </mxCell>
        <mxCell id="tP8016Ay0PhHoCR8HvtD-24" style="edgeStyle=orthogonalEdgeStyle;rounded=0;orthogonalLoop=1;jettySize=auto;html=1;entryX=0.5;entryY=1;entryDx=0;entryDy=0;" parent="1" source="tP8016Ay0PhHoCR8HvtD-11" target="tP8016Ay0PhHoCR8HvtD-22" edge="1">
          <mxGeometry relative="1" as="geometry" />
        </mxCell>
        <mxCell id="tP8016Ay0PhHoCR8HvtD-11" value="&lt;font style=&quot;font-size: 18px;&quot;&gt;backbone&lt;/font&gt;" style="text;html=1;align=center;verticalAlign=middle;resizable=0;points=[];autosize=1;strokeColor=none;fillColor=none;" parent="1" vertex="1">
          <mxGeometry x="450" y="465" width="100" height="40" as="geometry" />
        </mxCell>
        <mxCell id="tP8016Ay0PhHoCR8HvtD-12" value="" style="shape=trapezoid;perimeter=trapezoidPerimeter;whiteSpace=wrap;html=1;fixedSize=1;rotation=-90;" parent="1" vertex="1">
          <mxGeometry x="719.5" y="192.5" width="120" height="85" as="geometry" />
        </mxCell>
        <mxCell id="tP8016Ay0PhHoCR8HvtD-30" style="edgeStyle=orthogonalEdgeStyle;rounded=0;orthogonalLoop=1;jettySize=auto;html=1;entryX=0.5;entryY=1;entryDx=0;entryDy=0;" parent="1" source="tP8016Ay0PhHoCR8HvtD-13" target="tP8016Ay0PhHoCR8HvtD-26" edge="1">
          <mxGeometry relative="1" as="geometry" />
        </mxCell>
        <mxCell id="tP8016Ay0PhHoCR8HvtD-13" value="&lt;font style=&quot;font-size: 18px;&quot;&gt;head&lt;/font&gt;" style="text;html=1;align=center;verticalAlign=middle;resizable=0;points=[];autosize=1;strokeColor=none;fillColor=none;" parent="1" vertex="1">
          <mxGeometry x="749.5" y="215" width="60" height="40" as="geometry" />
        </mxCell>
        <mxCell id="UuHTb96S9nf3vTYllVMT-2" style="edgeStyle=orthogonalEdgeStyle;rounded=0;orthogonalLoop=1;jettySize=auto;html=1;entryX=0;entryY=0.5;entryDx=0;entryDy=0;" edge="1" parent="1" source="tP8016Ay0PhHoCR8HvtD-14" target="tP8016Ay0PhHoCR8HvtD-12">
          <mxGeometry relative="1" as="geometry" />
        </mxCell>
        <mxCell id="UuHTb96S9nf3vTYllVMT-4" value="&lt;font style=&quot;font-size: 20px;&quot;&gt;EMA&lt;/font&gt;" style="edgeLabel;html=1;align=center;verticalAlign=middle;resizable=0;points=[];" vertex="1" connectable="0" parent="UuHTb96S9nf3vTYllVMT-2">
          <mxGeometry x="0.0373" y="2" relative="1" as="geometry">
            <mxPoint as="offset" />
          </mxGeometry>
        </mxCell>
        <mxCell id="tP8016Ay0PhHoCR8HvtD-14" value="" style="shape=trapezoid;perimeter=trapezoidPerimeter;whiteSpace=wrap;html=1;fixedSize=1;rotation=-90;" parent="1" vertex="1">
          <mxGeometry x="719.5" y="442.5" width="120" height="85" as="geometry" />
        </mxCell>
        <mxCell id="tP8016Ay0PhHoCR8HvtD-32" style="edgeStyle=orthogonalEdgeStyle;rounded=0;orthogonalLoop=1;jettySize=auto;html=1;entryX=0.5;entryY=1;entryDx=0;entryDy=0;" parent="1" source="tP8016Ay0PhHoCR8HvtD-15" target="tP8016Ay0PhHoCR8HvtD-25" edge="1">
          <mxGeometry relative="1" as="geometry" />
        </mxCell>
        <mxCell id="tP8016Ay0PhHoCR8HvtD-15" value="&lt;font style=&quot;font-size: 18px;&quot;&gt;head&lt;/font&gt;" style="text;html=1;align=center;verticalAlign=middle;resizable=0;points=[];autosize=1;strokeColor=none;fillColor=none;" parent="1" vertex="1">
          <mxGeometry x="749.5" y="465" width="60" height="40" as="geometry" />
        </mxCell>
        <mxCell id="tP8016Ay0PhHoCR8HvtD-18" value="&lt;font style=&quot;font-size: 20px;&quot;&gt;teacher&lt;/font&gt;" style="text;html=1;align=center;verticalAlign=middle;resizable=0;points=[];autosize=1;strokeColor=none;fillColor=none;" parent="1" vertex="1">
          <mxGeometry x="240" y="113" width="90" height="40" as="geometry" />
        </mxCell>
        <mxCell id="tP8016Ay0PhHoCR8HvtD-19" value="&lt;font style=&quot;font-size: 20px;&quot;&gt;student&lt;/font&gt;" style="text;html=1;align=center;verticalAlign=middle;resizable=0;points=[];autosize=1;strokeColor=none;fillColor=none;" parent="1" vertex="1">
          <mxGeometry x="240" y="567" width="90" height="40" as="geometry" />
        </mxCell>
        <mxCell id="tP8016Ay0PhHoCR8HvtD-22" value="&lt;font style=&quot;font-size: 20px;&quot;&gt;hash_loss&lt;/font&gt;" style="ellipse;whiteSpace=wrap;html=1;" parent="1" vertex="1">
          <mxGeometry x="580" y="320" width="120" height="80" as="geometry" />
        </mxCell>
        <mxCell id="tP8016Ay0PhHoCR8HvtD-25" value="&lt;font style=&quot;font-size: 20px;&quot;&gt;dino_loss&lt;/font&gt;" style="ellipse;whiteSpace=wrap;html=1;" parent="1" vertex="1">
          <mxGeometry x="1072.5" y="320" width="120" height="80" as="geometry" />
        </mxCell>
        <mxCell id="tP8016Ay0PhHoCR8HvtD-31" style="edgeStyle=orthogonalEdgeStyle;rounded=0;orthogonalLoop=1;jettySize=auto;html=1;" parent="1" source="tP8016Ay0PhHoCR8HvtD-26" edge="1">
          <mxGeometry relative="1" as="geometry">
            <mxPoint x="990" y="235" as="targetPoint" />
          </mxGeometry>
        </mxCell>
        <mxCell id="tP8016Ay0PhHoCR8HvtD-26" value="" style="rounded=0;whiteSpace=wrap;html=1;rotation=90;" parent="1" vertex="1">
          <mxGeometry x="839.5" y="205" width="143" height="60" as="geometry" />
        </mxCell>
        <mxCell id="tP8016Ay0PhHoCR8HvtD-27" value="&lt;font style=&quot;font-size: 18px;&quot;&gt;去中心化&lt;/font&gt;" style="text;html=1;align=center;verticalAlign=middle;resizable=0;points=[];autosize=1;strokeColor=none;fillColor=none;" parent="1" vertex="1">
          <mxGeometry x="861" y="173" width="100" height="40" as="geometry" />
        </mxCell>
        <mxCell id="tP8016Ay0PhHoCR8HvtD-33" style="edgeStyle=orthogonalEdgeStyle;rounded=0;orthogonalLoop=1;jettySize=auto;html=1;entryX=0.5;entryY=0;entryDx=0;entryDy=0;" parent="1" source="tP8016Ay0PhHoCR8HvtD-28" target="tP8016Ay0PhHoCR8HvtD-25" edge="1">
          <mxGeometry relative="1" as="geometry" />
        </mxCell>
        <mxCell id="tP8016Ay0PhHoCR8HvtD-28" value="" style="rounded=0;whiteSpace=wrap;html=1;rotation=90;" parent="1" vertex="1">
          <mxGeometry x="950" y="205" width="143" height="60" as="geometry" />
        </mxCell>
        <mxCell id="tP8016Ay0PhHoCR8HvtD-29" value="&lt;font style=&quot;font-size: 18px;&quot;&gt;softmax&lt;/font&gt;" style="text;html=1;align=center;verticalAlign=middle;resizable=0;points=[];autosize=1;strokeColor=none;fillColor=none;" parent="1" vertex="1">
          <mxGeometry x="982.5" y="173" width="90" height="40" as="geometry" />
        </mxCell>
      </root>
    </mxGraphModel>
  </diagram>
</mxfile>
